<?xml version="1.0" encoding="iso-8859-1" standalone="no"?> 
<?xml-stylesheet href="251LabManual.css" type="text/css"?> 
<svg xmlns="http://www.w3.org/2000/svg" xmlns:xlink="http://www.w3.org/1999/xlink" width="205.64902pt" height="205.64902pt" viewBox="-0.2 -0.2 205.64902 205.64902 "> 
<g transform="translate(0, 205.44902 ) scale(1,-1) translate(0,0.2 )"> 
<g>{?nl} <g stroke="rgb(0.0%,0.0%,0.0%)">{?nl} <g fill="rgb(0.0%,0.0%,0.0%)">{?nl} <g stroke-width="0.4pt">{?nl} <g>{?nl} <g>{?nl} </g>{?nl} <g>{?nl} </g>{?nl} <g>{?nl} <g transform="matrix(1.0,0.0,0.0,1.0,0.0,0.0)">{?nl} <g fill="rgb(0.0%,0.0%,0.0%)">{?nl} <text style="stroke:none" transform="scale(1,-1) translate(0.0,0)" text-anchor="middle"  font-size="12"> 
</text> 
</g>{?nl} </g>{?nl} </g>{?nl} <g>{?nl} </g>{?nl} <g>{?nl} </g>{?nl} <g>{?nl} <g>{?nl} <g>{?nl} <clipPath id="pgfcp1"> <path d=" M  0.0 -142.27238 L  205.24902 -142.27238 L  205.24902 347.52141 L  0.0 347.52141  "/>{?nl}</clipPath>{?nl} <g clip-path="url(#pgfcp1)">{?nl} <g>{?nl} <g stroke-width="0.4pt">{?nl} <g stroke="rgb(75.0%,75.0%,75.0%)">{?nl} <g fill="rgb(75.0%,75.0%,75.0%)">{?nl} <path d=" M  14.66064 0.0 L  14.66064 205.24902 M  29.32129 0.0 L  29.32129 205.24902 M  43.98193 0.0 L  43.98193 205.24902 M  58.64258 0.0 L  58.64258 205.24902 M  73.30322 0.0 L  73.30322 205.24902 M  87.96387 0.0 L  87.96387 205.24902 M  102.62451 0.0 L  102.62451 205.24902 M  117.28516 0.0 L  117.28516 205.24902 M  131.9458 0.0 L  131.9458 205.24902 M  146.60645 0.0 L  146.60645 205.24902 M  161.26709 0.0 L  161.26709 205.24902 M  175.92773 0.0 L  175.92773 205.24902 M  190.58838 0.0 L  190.58838 205.24902  " style="fill:none"/>{?nl} </g>{?nl} </g>{?nl} </g>{?nl} </g>{?nl} </g>{?nl} </g>{?nl} <g>{?nl} <clipPath id="pgfcp2"> <path d=" M  -142.27238 0.0 L  -142.27238 205.24902 L  347.52141 205.24902 L  347.52141 0.0  "/>{?nl}</clipPath>{?nl} <g clip-path="url(#pgfcp2)">{?nl} <g>{?nl} <g stroke-width="0.4pt">{?nl} <g stroke="rgb(75.0%,75.0%,75.0%)">{?nl} <g fill="rgb(75.0%,75.0%,75.0%)">{?nl} <path d=" M  0.0 14.66064 L  205.24902 14.66064 M  0.0 29.32129 L  205.24902 29.32129 M  0.0 43.98193 L  205.24902 43.98193 M  0.0 58.64258 L  205.24902 58.64258 M  0.0 73.30322 L  205.24902 73.30322 M  0.0 87.96387 L  205.24902 87.96387 M  0.0 102.62451 L  205.24902 102.62451 M  0.0 117.28516 L  205.24902 117.28516 M  0.0 131.9458 L  205.24902 131.9458 M  0.0 146.60645 L  205.24902 146.60645 M  0.0 161.26709 L  205.24902 161.26709 M  0.0 175.92773 L  205.24902 175.92773 M  0.0 190.58838 L  205.24902 190.58838  " style="fill:none"/>{?nl} </g>{?nl} </g>{?nl} </g>{?nl} </g>{?nl} </g>{?nl} </g>{?nl} <g>{?nl} <clipPath id="pgfcp3"> <path d=" M  0.0 -142.27238 L  205.24902 -142.27238 L  205.24902 347.52141 L  0.0 347.52141  "/>{?nl}</clipPath>{?nl} <g clip-path="url(#pgfcp3)">{?nl} <g>{?nl} <g stroke-width="0.2pt">{?nl} <g stroke="rgb(50.0%,50.0%,50.0%)">{?nl} <g fill="rgb(50.0%,50.0%,50.0%)">{?nl} <path d=" M  14.66064 101.2017 L  14.66064 104.04732 M  29.32129 101.2017 L  29.32129 104.04732 M  43.98193 101.2017 L  43.98193 104.04732 M  58.64258 101.2017 L  58.64258 104.04732 M  73.30322 101.2017 L  73.30322 104.04732 M  87.96387 101.2017 L  87.96387 104.04732 M  102.62451 101.2017 L  102.62451 104.04732 M  117.28516 101.2017 L  117.28516 104.04732 M  131.9458 101.2017 L  131.9458 104.04732 M  146.60645 101.2017 L  146.60645 104.04732 M  161.26709 101.2017 L  161.26709 104.04732 M  175.92773 101.2017 L  175.92773 104.04732 M  190.58838 101.2017 L  190.58838 104.04732  " style="fill:none"/>{?nl} </g>{?nl} </g>{?nl} </g>{?nl} </g>{?nl} <g>{?nl} <g stroke-width="0.2pt">{?nl} <g stroke="rgb(50.0%,50.0%,50.0%)">{?nl} <g fill="rgb(50.0%,50.0%,50.0%)">{?nl} <path d=" M  14.66064 100.49051 L  14.66064 104.7585 M  43.98193 100.49051 L  43.98193 104.7585 M  73.30322 100.49051 L  73.30322 104.7585 M  131.9458 100.49051 L  131.9458 104.7585 M  161.26709 100.49051 L  161.26709 104.7585 M  190.58838 100.49051 L  190.58838 104.7585  " style="fill:none"/>{?nl} </g>{?nl} </g>{?nl} </g>{?nl} </g>{?nl} </g>{?nl} </g>{?nl} <g>{?nl} <clipPath id="pgfcp4"> <path d=" M  -142.27238 0.0 L  -142.27238 205.24902 L  347.52141 205.24902 L  347.52141 0.0  "/>{?nl}</clipPath>{?nl} <g clip-path="url(#pgfcp4)">{?nl} <g>{?nl} <g stroke-width="0.2pt">{?nl} <g stroke="rgb(50.0%,50.0%,50.0%)">{?nl} <g fill="rgb(50.0%,50.0%,50.0%)">{?nl} <path d=" M  101.2017 14.66064 L  104.04732 14.66064 M  101.2017 29.32129 L  104.04732 29.32129 M  101.2017 43.98193 L  104.04732 43.98193 M  101.2017 58.64258 L  104.04732 58.64258 M  101.2017 73.30322 L  104.04732 73.30322 M  101.2017 87.96387 L  104.04732 87.96387 M  101.2017 102.62451 L  104.04732 102.62451 M  101.2017 117.28516 L  104.04732 117.28516 M  101.2017 131.9458 L  104.04732 131.9458 M  101.2017 146.60645 L  104.04732 146.60645 M  101.2017 161.26709 L  104.04732 161.26709 M  101.2017 175.92773 L  104.04732 175.92773 M  101.2017 190.58838 L  104.04732 190.58838  " style="fill:none"/>{?nl} </g>{?nl} </g>{?nl} </g>{?nl} </g>{?nl} <g>{?nl} <g stroke-width="0.2pt">{?nl} <g stroke="rgb(50.0%,50.0%,50.0%)">{?nl} <g fill="rgb(50.0%,50.0%,50.0%)">{?nl} <path d=" M  100.49051 14.66064 L  104.7585 14.66064 M  100.49051 43.98193 L  104.7585 43.98193 M  100.49051 73.30322 L  104.7585 73.30322 M  100.49051 131.9458 L  104.7585 131.9458 M  100.49051 161.26709 L  104.7585 161.26709 M  100.49051 190.58838 L  104.7585 190.58838  " style="fill:none"/>{?nl} </g>{?nl} </g>{?nl} </g>{?nl} </g>{?nl} </g>{?nl} </g>{?nl} <path d=" M  0.0 102.62451 L  203.24905 102.62451  " style="fill:none"/>{?nl} <g>{?nl} <g transform="matrix(1.0,0.0,0.0,1.0,203.24905,102.62451)">{?nl} <g>{?nl} <path d=" M  1.99997 0.0 L  -1.19998 1.59998 L  0.0 0.0 L  -1.19998 -1.59998  " style="stroke:none"/>{?nl} </g>{?nl}  </g>{?nl} </g>{?nl} <path d=" M  102.62451 0.0 L  102.62451 203.24905  " style="fill:none"/>{?nl} <g>{?nl} <g transform="matrix(0.0,1.0,-1.0,0.0,102.62451,203.24905)">{?nl} <g>{?nl} <path d=" M  1.99997 0.0 L  -1.19998 1.59998 L  0.0 0.0 L  -1.19998 -1.59998  " style="stroke:none"/>{?nl} </g>{?nl}  </g>{?nl} </g>{?nl} <g>{?nl} <g>{?nl} <g transform="matrix(1.0,0.0,0.0,1.0,4.38988,88.641)">{?nl} <g fill="rgb(0.0%,0.0%,0.0%)">{?nl} <text style="stroke:none" transform="scale(1,-1) translate(10.27077,0)" text-anchor="middle"  font-size="12"> 
 <tspan font-family="cmsy" font-size="10">&#x2212; </tspan>6</text> 
</g>{?nl} </g>{?nl} </g>{?nl} </g>{?nl} <g>{?nl} <g>{?nl} <g transform="matrix(1.0,0.0,0.0,1.0,33.71117,88.641)">{?nl} <g fill="rgb(0.0%,0.0%,0.0%)">{?nl} <text style="stroke:none" transform="scale(1,-1) translate(10.27077,0)" text-anchor="middle"  font-size="12"> 
 <tspan font-family="cmsy" font-size="10">&#x2212; </tspan>4</text> 
</g>{?nl} </g>{?nl} </g>{?nl} </g>{?nl} <g>{?nl} <g>{?nl} <g transform="matrix(1.0,0.0,0.0,1.0,63.03246,88.641)">{?nl} <g fill="rgb(0.0%,0.0%,0.0%)">{?nl} <text style="stroke:none" transform="scale(1,-1) translate(10.27077,0)" text-anchor="middle"  font-size="12"> 
 <tspan font-family="cmsy" font-size="10">&#x2212; </tspan>2</text> 
</g>{?nl} </g>{?nl} </g>{?nl} </g>{?nl} <g>{?nl} <g>{?nl} <g transform="matrix(1.0,0.0,0.0,1.0,129.00833,88.641)">{?nl} <g fill="rgb(0.0%,0.0%,0.0%)">{?nl} <text style="stroke:none" transform="scale(1,-1) translate(2.93747,0)" text-anchor="middle"  font-size="12"> 
2</text> 
</g>{?nl} </g>{?nl} </g>{?nl} </g>{?nl} <g>{?nl} <g>{?nl} <g transform="matrix(1.0,0.0,0.0,1.0,158.32962,88.641)">{?nl} <g fill="rgb(0.0%,0.0%,0.0%)">{?nl} <text style="stroke:none" transform="scale(1,-1) translate(2.93747,0)" text-anchor="middle"  font-size="12"> 
4</text> 
</g>{?nl} </g>{?nl} </g>{?nl} </g>{?nl} <g>{?nl} <g>{?nl} <g transform="matrix(1.0,0.0,0.0,1.0,187.65091,88.641)">{?nl} <g fill="rgb(0.0%,0.0%,0.0%)">{?nl} <text style="stroke:none" transform="scale(1,-1) translate(2.93747,0)" text-anchor="middle"  font-size="12"> 
6</text> 
</g>{?nl} </g>{?nl} </g>{?nl} </g>{?nl} <g>{?nl} <g>{?nl} <g transform="matrix(1.0,0.0,0.0,1.0,75.83278,11.29399)">{?nl} <g fill="rgb(0.0%,0.0%,0.0%)">{?nl} <text style="stroke:none" transform="scale(1,-1) translate(10.27077,0)" text-anchor="middle"  font-size="12"> 
 <tspan font-family="cmsy" font-size="10">&#x2212; </tspan>6</text> 
</g>{?nl} </g>{?nl} </g>{?nl} </g>{?nl} <g>{?nl} <g>{?nl} <g transform="matrix(1.0,0.0,0.0,1.0,75.83278,40.61528)">{?nl} <g fill="rgb(0.0%,0.0%,0.0%)">{?nl} <text style="stroke:none" transform="scale(1,-1) translate(10.27077,0)" text-anchor="middle"  font-size="12"> 
 <tspan font-family="cmsy" font-size="10">&#x2212; </tspan>4</text> 
</g>{?nl} </g>{?nl} </g>{?nl} </g>{?nl} <g>{?nl} <g>{?nl} <g transform="matrix(1.0,0.0,0.0,1.0,75.83278,69.93657)">{?nl} <g fill="rgb(0.0%,0.0%,0.0%)">{?nl} <text style="stroke:none" transform="scale(1,-1) translate(10.27077,0)" text-anchor="middle"  font-size="12"> 
 <tspan font-family="cmsy" font-size="10">&#x2212; </tspan>2</text> 
</g>{?nl} </g>{?nl} </g>{?nl} </g>{?nl} <g>{?nl} <g>{?nl} <g transform="matrix(1.0,0.0,0.0,1.0,90.49937,128.07915)">{?nl} <g fill="rgb(0.0%,0.0%,0.0%)">{?nl} <text style="stroke:none" transform="scale(1,-1) translate(2.93747,0)" text-anchor="middle"  font-size="12"> 
2</text> 
</g>{?nl} </g>{?nl} </g>{?nl} </g>{?nl} <g>{?nl} <g>{?nl} <g transform="matrix(1.0,0.0,0.0,1.0,90.49937,157.40044)">{?nl} <g fill="rgb(0.0%,0.0%,0.0%)">{?nl} <text style="stroke:none" transform="scale(1,-1) translate(2.93747,0)" text-anchor="middle"  font-size="12"> 
4</text> 
</g>{?nl} </g>{?nl} </g>{?nl} </g>{?nl} <g>{?nl} <g>{?nl} <g transform="matrix(1.0,0.0,0.0,1.0,90.49937,186.72173)">{?nl} <g fill="rgb(0.0%,0.0%,0.0%)">{?nl} <text style="stroke:none" transform="scale(1,-1) translate(2.93747,0)" text-anchor="middle"  font-size="12"> 
6</text> 
</g>{?nl} </g>{?nl} </g>{?nl} </g>{?nl} <clipPath id="pgfcp5"> <path d=" M  0.0 0.0 L  205.24902 0.0 L  205.24902 205.24902 L  0.0 205.24902 Z  "/>{?nl}</clipPath>{?nl} <g clip-path="url(#pgfcp5)">{?nl} <g>{?nl} <path d=" M  68.97694 2.06757 L  72.9367 27.113 L  76.96838 50.39597 L  81.00006 71.46146 L  85.03174 90.30957 L  89.06342 106.94023 L  93.0951 121.35349 L  97.12677 133.5493 L  101.15845 143.52771 L  105.19012 151.28868 L  109.2218 156.83224 L  113.25348 160.15837 L  117.28516 161.26709 L  121.31683 160.15836 L  125.34851 156.83224 L  129.38019 151.2887 L  133.41187 143.5277 L  137.44354 133.5493 L  141.47522 121.35347 L  145.5069 106.94025 L  149.53857 90.3095 L  153.57025 71.4615 L  157.60193 50.39597 L  161.6336 27.11305 L  165.59337 2.06749  " style="fill:none"/>{?nl} <g>{?nl} <g transform="matrix(-0.15634,-0.98894,0.98894,-0.15634,68.97694,2.06757)">{?nl} <g>{?nl} <g stroke-width="0.31999pt">{?nl} <g stroke-dasharray="none" stroke-dashoffset="0.0pt">{?nl} <g stroke-linecap="round">{?nl} <g stroke-linejoin="round">{?nl} <path d=" M  -1.19998 1.59998 C  -1.09998 0.99998 0.0 0.09999 0.29999 0.0 C  0.0 -0.09999 -1.09998 -0.99998 -1.19998 -1.59998  " style="fill:none"/>{?nl} </g>{?nl} </g>{?nl} </g>{?nl} </g>{?nl} </g>{?nl}  </g>{?nl} </g>{?nl} <g>{?nl} <g transform="matrix(0.15634,-0.98894,0.98894,0.15634,165.59337,2.06749)">{?nl} <g>{?nl} <g stroke-width="0.31999pt">{?nl} <g stroke-dasharray="none" stroke-dashoffset="0.0pt">{?nl} <g stroke-linecap="round">{?nl} <g stroke-linejoin="round">{?nl} <path d=" M  -1.19998 1.59998 C  -1.09998 0.99998 0.0 0.09999 0.29999 0.0 C  0.0 -0.09999 -1.09998 -0.99998 -1.19998 -1.59998  " style="fill:none"/>{?nl} </g>{?nl} </g>{?nl} </g>{?nl} </g>{?nl} </g>{?nl}  </g>{?nl} </g>{?nl} </g>{?nl} <g>{?nl} <path d=" M  76.44107 198.97334 L  80.26703 191.32141 L  84.2987 183.25806 L  88.33038 175.1947 L  92.36206 167.13135 L  96.39374 159.068 L  100.42542 151.00464 L  104.45709 142.94128 L  108.48877 134.87793 L  112.52045 126.81458 L  116.55212 118.75122 L  120.5838 110.68787 L  124.61548 102.62451 L  128.64716 94.56116 L  132.67883 86.4978 L  136.71051 78.43445 L  140.74219 70.3711 L  144.77386 62.30774 L  148.80554 54.24438 L  152.83722 46.18103 L  156.8689 38.11768 L  160.90057 30.05432 L  164.93225 21.99097 L  168.96393 13.92761 L  172.78989 6.27568  " style="fill:none"/>{?nl} <g>{?nl} <g transform="matrix(-0.44724,0.89442,-0.89442,-0.44724,76.44107,198.97334)">{?nl} <g>{?nl} <g stroke-width="0.31999pt">{?nl} <g stroke-dasharray="none" stroke-dashoffset="0.0pt">{?nl} <g stroke-linecap="round">{?nl} <g stroke-linejoin="round">{?nl} <path d=" M  -1.19998 1.59998 C  -1.09998 0.99998 0.0 0.09999 0.29999 0.0 C  0.0 -0.09999 -1.09998 -0.99998 -1.19998 -1.59998  " style="fill:none"/>{?nl} </g>{?nl} </g>{?nl} </g>{?nl} </g>{?nl} </g>{?nl}  </g>{?nl} </g>{?nl} <g>{?nl} <g transform="matrix(0.44724,-0.89442,0.89442,0.44724,172.78989,6.27568)">{?nl} <g>{?nl} <g stroke-width="0.31999pt">{?nl} <g stroke-dasharray="none" stroke-dashoffset="0.0pt">{?nl} <g stroke-linecap="round">{?nl} <g stroke-linejoin="round">{?nl} <path d=" M  -1.19998 1.59998 C  -1.09998 0.99998 0.0 0.09999 0.29999 0.0 C  0.0 -0.09999 -1.09998 -0.99998 -1.19998 -1.59998  " style="fill:none"/>{?nl} </g>{?nl} </g>{?nl} </g>{?nl} </g>{?nl} </g>{?nl}  </g>{?nl} </g>{?nl} </g>{?nl} </g>{?nl} </g>{?nl} <g>{?nl} <path d=" M  104.62451 146.60645 C  104.62451 147.71103 103.7291 148.60645 102.62451 148.60645 C  101.51993 148.60645 100.62451 147.71103 100.62451 146.60645 C  100.62451 145.50186 101.51993 144.60645 102.62451 144.60645 C  103.7291 144.60645 104.62451 145.50186 104.62451 146.60645 Z M  102.62451 146.60645  " />{?nl} <path d=" M  163.26709 29.32129 C  163.26709 30.42587 162.37167 31.32129 161.26709 31.32129 C  160.1625 31.32129 159.26709 30.42587 159.26709 29.32129 C  159.26709 28.2167 160.1625 27.32129 161.26709 27.32129 C  162.37167 27.32129 163.26709 28.2167 163.26709 29.32129 Z M  161.26709 29.32129  " />{?nl} <path d="  " style="fill:none"/>{?nl} </g>{?nl} <g>{?nl} <g>{?nl} <g transform="matrix(1.0,0.0,0.0,1.0,194.4558,106.7407)">{?nl} <g fill="rgb(0.0%,0.0%,0.0%)">{?nl} <text style="stroke:none" transform="scale(1,-1) translate(3.33852,0)" text-anchor="middle"  font-size="12"> 
<tspan font-family="cmmi" font-size="12">x</tspan></text> 
</g>{?nl} </g>{?nl} </g>{?nl} </g>{?nl} <g>{?nl} <g>{?nl} <g transform="matrix(1.0,0.0,0.0,1.0,106.7407,195.96617)">{?nl} <g fill="rgb(0.0%,0.0%,0.0%)">{?nl} <text style="stroke:none" transform="scale(1,-1) translate(3.07982,0)" text-anchor="middle"  font-size="12"> 
<tspan font-family="cmmi" font-size="12">y</tspan></text> 
</g>{?nl} </g>{?nl} </g>{?nl} </g>{?nl} </g>{?nl} <g>{?nl} </g>{?nl} <g>{?nl} </g>{?nl} <g>{?nl} <g transform="matrix(1.0,0.0,0.0,1.0,-0.2,-0.2)">{?nl} <g fill="rgb(0.0%,0.0%,0.0%)">{?nl} <text style="stroke:none" transform="scale(1,-1) translate(0.0,0)" text-anchor="middle"  font-size="12"> 
</text> 
</g>{?nl} </g>{?nl} </g>{?nl} <g>{?nl} </g>{?nl} <g>{?nl} </g>{?nl} </g>{?nl} </g>{?nl} </g>{?nl} </g>{?nl} </g>{?nl}                                         </g> 
</svg> 
