<?xml version="1.0" encoding="iso-8859-1" standalone="no"?> 
<?xml-stylesheet href="251LabManual.css" type="text/css"?> 
<svg xmlns="http://www.w3.org/2000/svg" xmlns:xlink="http://www.w3.org/1999/xlink" width="205.64902pt" height="205.64902pt" viewBox="-0.2 -0.2 205.64902 205.64902 "> 
<g transform="translate(0, 205.44902 ) scale(1,-1) translate(0,0.2 )"> 
<g>{?nl} <g stroke="rgb(0.0%,0.0%,0.0%)">{?nl} <g fill="rgb(0.0%,0.0%,0.0%)">{?nl} <g stroke-width="0.4pt">{?nl} <g>{?nl} <g>{?nl} </g>{?nl} <g>{?nl} </g>{?nl} <g>{?nl} <g transform="matrix(1.0,0.0,0.0,1.0,0.0,0.0)">{?nl} <g fill="rgb(0.0%,0.0%,0.0%)">{?nl} <text style="stroke:none" transform="scale(1,-1) translate(0.0,0)" text-anchor="middle"  font-size="12"> 
</text> 
</g>{?nl} </g>{?nl} </g>{?nl} <g>{?nl} </g>{?nl} <g>{?nl} </g>{?nl} <g>{?nl} <g>{?nl} <g>{?nl} <clipPath id="pgfcp16"> <path d=" M  0.0 -142.27238 L  205.24902 -142.27238 L  205.24902 347.52141 L  0.0 347.52141  "/>{?nl}</clipPath>{?nl} <g clip-path="url(#pgfcp16)">{?nl} <g>{?nl} <g stroke-width="0.4pt">{?nl} <g stroke="rgb(75.0%,75.0%,75.0%)">{?nl} <g fill="rgb(75.0%,75.0%,75.0%)">{?nl} <path d=" M  14.66064 0.0 L  14.66064 205.24902 M  29.32129 0.0 L  29.32129 205.24902 M  43.98193 0.0 L  43.98193 205.24902 M  58.64258 0.0 L  58.64258 205.24902 M  73.30322 0.0 L  73.30322 205.24902 M  87.96387 0.0 L  87.96387 205.24902 M  102.62451 0.0 L  102.62451 205.24902 M  117.28516 0.0 L  117.28516 205.24902 M  131.9458 0.0 L  131.9458 205.24902 M  146.60645 0.0 L  146.60645 205.24902 M  161.26709 0.0 L  161.26709 205.24902 M  175.92773 0.0 L  175.92773 205.24902 M  190.58838 0.0 L  190.58838 205.24902  " style="fill:none"/>{?nl} </g>{?nl} </g>{?nl} </g>{?nl} </g>{?nl} </g>{?nl} </g>{?nl} <g>{?nl} <clipPath id="pgfcp17"> <path d=" M  -142.27238 0.0 L  -142.27238 205.24902 L  347.52141 205.24902 L  347.52141 0.0  "/>{?nl}</clipPath>{?nl} <g clip-path="url(#pgfcp17)">{?nl} <g>{?nl} <g stroke-width="0.4pt">{?nl} <g stroke="rgb(75.0%,75.0%,75.0%)">{?nl} <g fill="rgb(75.0%,75.0%,75.0%)">{?nl} <path d=" M  0.0 14.66064 L  205.24902 14.66064 M  0.0 29.32129 L  205.24902 29.32129 M  0.0 43.98193 L  205.24902 43.98193 M  0.0 58.64258 L  205.24902 58.64258 M  0.0 73.30322 L  205.24902 73.30322 M  0.0 87.96387 L  205.24902 87.96387 M  0.0 102.62451 L  205.24902 102.62451 M  0.0 117.28516 L  205.24902 117.28516 M  0.0 131.9458 L  205.24902 131.9458 M  0.0 146.60645 L  205.24902 146.60645 M  0.0 161.26709 L  205.24902 161.26709 M  0.0 175.92773 L  205.24902 175.92773 M  0.0 190.58838 L  205.24902 190.58838  " style="fill:none"/>{?nl} </g>{?nl} </g>{?nl} </g>{?nl} </g>{?nl} </g>{?nl} </g>{?nl} <g>{?nl} <clipPath id="pgfcp18"> <path d=" M  0.0 -142.27238 L  205.24902 -142.27238 L  205.24902 347.52141 L  0.0 347.52141  "/>{?nl}</clipPath>{?nl} <g clip-path="url(#pgfcp18)">{?nl} <g>{?nl} <g stroke-width="0.2pt">{?nl} <g stroke="rgb(50.0%,50.0%,50.0%)">{?nl} <g fill="rgb(50.0%,50.0%,50.0%)">{?nl} <path d=" M  14.66064 101.2017 L  14.66064 104.04732 M  29.32129 101.2017 L  29.32129 104.04732 M  43.98193 101.2017 L  43.98193 104.04732 M  58.64258 101.2017 L  58.64258 104.04732 M  73.30322 101.2017 L  73.30322 104.04732 M  87.96387 101.2017 L  87.96387 104.04732 M  102.62451 101.2017 L  102.62451 104.04732 M  117.28516 101.2017 L  117.28516 104.04732 M  131.9458 101.2017 L  131.9458 104.04732 M  146.60645 101.2017 L  146.60645 104.04732 M  161.26709 101.2017 L  161.26709 104.04732 M  175.92773 101.2017 L  175.92773 104.04732 M  190.58838 101.2017 L  190.58838 104.04732  " style="fill:none"/>{?nl} </g>{?nl} </g>{?nl} </g>{?nl} </g>{?nl} <g>{?nl} <g stroke-width="0.2pt">{?nl} <g stroke="rgb(50.0%,50.0%,50.0%)">{?nl} <g fill="rgb(50.0%,50.0%,50.0%)">{?nl} <path d=" M  14.66064 100.49051 L  14.66064 104.7585 M  43.98193 100.49051 L  43.98193 104.7585 M  73.30322 100.49051 L  73.30322 104.7585 M  131.9458 100.49051 L  131.9458 104.7585 M  161.26709 100.49051 L  161.26709 104.7585 M  190.58838 100.49051 L  190.58838 104.7585  " style="fill:none"/>{?nl} </g>{?nl} </g>{?nl} </g>{?nl} </g>{?nl} </g>{?nl} </g>{?nl} <g>{?nl} <clipPath id="pgfcp19"> <path d=" M  -142.27238 0.0 L  -142.27238 205.24902 L  347.52141 205.24902 L  347.52141 0.0  "/>{?nl}</clipPath>{?nl} <g clip-path="url(#pgfcp19)">{?nl} <g>{?nl} <g stroke-width="0.2pt">{?nl} <g stroke="rgb(50.0%,50.0%,50.0%)">{?nl} <g fill="rgb(50.0%,50.0%,50.0%)">{?nl} <path d=" M  101.2017 14.66064 L  104.04732 14.66064 M  101.2017 29.32129 L  104.04732 29.32129 M  101.2017 43.98193 L  104.04732 43.98193 M  101.2017 58.64258 L  104.04732 58.64258 M  101.2017 73.30322 L  104.04732 73.30322 M  101.2017 87.96387 L  104.04732 87.96387 M  101.2017 102.62451 L  104.04732 102.62451 M  101.2017 117.28516 L  104.04732 117.28516 M  101.2017 131.9458 L  104.04732 131.9458 M  101.2017 146.60645 L  104.04732 146.60645 M  101.2017 161.26709 L  104.04732 161.26709 M  101.2017 175.92773 L  104.04732 175.92773 M  101.2017 190.58838 L  104.04732 190.58838  " style="fill:none"/>{?nl} </g>{?nl} </g>{?nl} </g>{?nl} </g>{?nl} <g>{?nl} <g stroke-width="0.2pt">{?nl} <g stroke="rgb(50.0%,50.0%,50.0%)">{?nl} <g fill="rgb(50.0%,50.0%,50.0%)">{?nl} <path d=" M  100.49051 14.66064 L  104.7585 14.66064 M  100.49051 43.98193 L  104.7585 43.98193 M  100.49051 73.30322 L  104.7585 73.30322 M  100.49051 131.9458 L  104.7585 131.9458 M  100.49051 161.26709 L  104.7585 161.26709 M  100.49051 190.58838 L  104.7585 190.58838  " style="fill:none"/>{?nl} </g>{?nl} </g>{?nl} </g>{?nl} </g>{?nl} </g>{?nl} </g>{?nl} <path d=" M  0.0 102.62451 L  203.24905 102.62451  " style="fill:none"/>{?nl} <g>{?nl} <g transform="matrix(1.0,0.0,0.0,1.0,203.24905,102.62451)">{?nl} <g>{?nl} <path d=" M  1.99997 0.0 L  -1.19998 1.59998 L  0.0 0.0 L  -1.19998 -1.59998  " style="stroke:none"/>{?nl} </g>{?nl}  </g>{?nl} </g>{?nl} <path d=" M  102.62451 0.0 L  102.62451 203.24905  " style="fill:none"/>{?nl} <g>{?nl} <g transform="matrix(0.0,1.0,-1.0,0.0,102.62451,203.24905)">{?nl} <g>{?nl} <path d=" M  1.99997 0.0 L  -1.19998 1.59998 L  0.0 0.0 L  -1.19998 -1.59998  " style="stroke:none"/>{?nl} </g>{?nl}  </g>{?nl} </g>{?nl} <g>{?nl} <g>{?nl} <g transform="matrix(1.0,0.0,0.0,1.0,4.38988,88.641)">{?nl} <g fill="rgb(0.0%,0.0%,0.0%)">{?nl} <text style="stroke:none" transform="scale(1,-1) translate(10.27077,0)" text-anchor="middle"  font-size="12"> 
 <tspan font-family="cmsy" font-size="10">&#x2212; </tspan>6</text> 
</g>{?nl} </g>{?nl} </g>{?nl} </g>{?nl} <g>{?nl} <g>{?nl} <g transform="matrix(1.0,0.0,0.0,1.0,33.71117,88.641)">{?nl} <g fill="rgb(0.0%,0.0%,0.0%)">{?nl} <text style="stroke:none" transform="scale(1,-1) translate(10.27077,0)" text-anchor="middle"  font-size="12"> 
 <tspan font-family="cmsy" font-size="10">&#x2212; </tspan>4</text> 
</g>{?nl} </g>{?nl} </g>{?nl} </g>{?nl} <g>{?nl} <g>{?nl} <g transform="matrix(1.0,0.0,0.0,1.0,63.03246,88.641)">{?nl} <g fill="rgb(0.0%,0.0%,0.0%)">{?nl} <text style="stroke:none" transform="scale(1,-1) translate(10.27077,0)" text-anchor="middle"  font-size="12"> 
 <tspan font-family="cmsy" font-size="10">&#x2212; </tspan>2</text> 
</g>{?nl} </g>{?nl} </g>{?nl} </g>{?nl} <g>{?nl} <g>{?nl} <g transform="matrix(1.0,0.0,0.0,1.0,129.00833,88.641)">{?nl} <g fill="rgb(0.0%,0.0%,0.0%)">{?nl} <text style="stroke:none" transform="scale(1,-1) translate(2.93747,0)" text-anchor="middle"  font-size="12"> 
2</text> 
</g>{?nl} </g>{?nl} </g>{?nl} </g>{?nl} <g>{?nl} <g>{?nl} <g transform="matrix(1.0,0.0,0.0,1.0,158.32962,88.641)">{?nl} <g fill="rgb(0.0%,0.0%,0.0%)">{?nl} <text style="stroke:none" transform="scale(1,-1) translate(2.93747,0)" text-anchor="middle"  font-size="12"> 
4</text> 
</g>{?nl} </g>{?nl} </g>{?nl} </g>{?nl} <g>{?nl} <g>{?nl} <g transform="matrix(1.0,0.0,0.0,1.0,187.65091,88.641)">{?nl} <g fill="rgb(0.0%,0.0%,0.0%)">{?nl} <text style="stroke:none" transform="scale(1,-1) translate(2.93747,0)" text-anchor="middle"  font-size="12"> 
6</text> 
</g>{?nl} </g>{?nl} </g>{?nl} </g>{?nl} <g>{?nl} <g>{?nl} <g transform="matrix(1.0,0.0,0.0,1.0,75.83278,11.29399)">{?nl} <g fill="rgb(0.0%,0.0%,0.0%)">{?nl} <text style="stroke:none" transform="scale(1,-1) translate(10.27077,0)" text-anchor="middle"  font-size="12"> 
 <tspan font-family="cmsy" font-size="10">&#x2212; </tspan>6</text> 
</g>{?nl} </g>{?nl} </g>{?nl} </g>{?nl} <g>{?nl} <g>{?nl} <g transform="matrix(1.0,0.0,0.0,1.0,75.83278,40.61528)">{?nl} <g fill="rgb(0.0%,0.0%,0.0%)">{?nl} <text style="stroke:none" transform="scale(1,-1) translate(10.27077,0)" text-anchor="middle"  font-size="12"> 
 <tspan font-family="cmsy" font-size="10">&#x2212; </tspan>4</text> 
</g>{?nl} </g>{?nl} </g>{?nl} </g>{?nl} <g>{?nl} <g>{?nl} <g transform="matrix(1.0,0.0,0.0,1.0,75.83278,69.93657)">{?nl} <g fill="rgb(0.0%,0.0%,0.0%)">{?nl} <text style="stroke:none" transform="scale(1,-1) translate(10.27077,0)" text-anchor="middle"  font-size="12"> 
 <tspan font-family="cmsy" font-size="10">&#x2212; </tspan>2</text> 
</g>{?nl} </g>{?nl} </g>{?nl} </g>{?nl} <g>{?nl} <g>{?nl} <g transform="matrix(1.0,0.0,0.0,1.0,90.49937,128.07915)">{?nl} <g fill="rgb(0.0%,0.0%,0.0%)">{?nl} <text style="stroke:none" transform="scale(1,-1) translate(2.93747,0)" text-anchor="middle"  font-size="12"> 
2</text> 
</g>{?nl} </g>{?nl} </g>{?nl} </g>{?nl} <g>{?nl} <g>{?nl} <g transform="matrix(1.0,0.0,0.0,1.0,90.49937,157.40044)">{?nl} <g fill="rgb(0.0%,0.0%,0.0%)">{?nl} <text style="stroke:none" transform="scale(1,-1) translate(2.93747,0)" text-anchor="middle"  font-size="12"> 
4</text> 
</g>{?nl} </g>{?nl} </g>{?nl} </g>{?nl} <g>{?nl} <g>{?nl} <g transform="matrix(1.0,0.0,0.0,1.0,90.49937,186.72173)">{?nl} <g fill="rgb(0.0%,0.0%,0.0%)">{?nl} <text style="stroke:none" transform="scale(1,-1) translate(2.93747,0)" text-anchor="middle"  font-size="12"> 
6</text> 
</g>{?nl} </g>{?nl} </g>{?nl} </g>{?nl} <clipPath id="pgfcp20"> <path d=" M  0.0 0.0 L  205.24902 0.0 L  205.24902 205.24902 L  0.0 205.24902 Z  "/>{?nl}</clipPath>{?nl} <g clip-path="url(#pgfcp20)">{?nl} <g>{?nl} <path d=" M  80.70143 11.45102 L  84.90955 39.68034 L  89.18556 65.87096 L  93.46156 89.5672 L  97.73758 110.76912 L  102.0136 129.4767 L  106.28961 145.68994 L  110.56561 159.40884 L  114.84163 170.63342 L  119.11765 179.36366 L  123.39365 185.59955 L  127.66966 189.34114 L  131.94568 190.58838 L  136.22168 189.34126 L  140.4977 185.59985 L  144.77371 179.36407 L  149.04971 170.63391 L  153.32573 159.40953 L  157.60173 145.69078 L  161.87775 129.47772 L  166.15376 110.77036 L  170.42976 89.56848 L  174.70578 65.8724 L  178.9818 39.68195 L  183.18991 11.45271  " style="fill:none"/>{?nl} <g>{?nl} <g transform="matrix(-0.14761,-0.99034,0.99034,-0.14761,80.70145,11.45102)">{?nl} <g>{?nl} <g stroke-width="0.31999pt">{?nl} <g stroke-dasharray="none" stroke-dashoffset="0.0pt">{?nl} <g stroke-linecap="round">{?nl} <g stroke-linejoin="round">{?nl} <path d=" M  -1.19998 1.59998 C  -1.09998 0.99998 0.0 0.09999 0.29999 0.0 C  0.0 -0.09999 -1.09998 -0.99998 -1.19998 -1.59998  " style="fill:none"/>{?nl} </g>{?nl} </g>{?nl} </g>{?nl} </g>{?nl} </g>{?nl}  </g>{?nl} </g>{?nl} <g>{?nl} <g transform="matrix(0.14761,-0.99034,0.99034,0.14761,183.1899,11.45271)">{?nl} <g>{?nl} <g stroke-width="0.31999pt">{?nl} <g stroke-dasharray="none" stroke-dashoffset="0.0pt">{?nl} <g stroke-linecap="round">{?nl} <g stroke-linejoin="round">{?nl} <path d=" M  -1.19998 1.59998 C  -1.09998 0.99998 0.0 0.09999 0.29999 0.0 C  0.0 -0.09999 -1.09998 -0.99998 -1.19998 -1.59998  " style="fill:none"/>{?nl} </g>{?nl} </g>{?nl} </g>{?nl} </g>{?nl} </g>{?nl}  </g>{?nl} </g>{?nl} </g>{?nl} <g>{?nl} <path d=" M  143.78587 201.87065 L  145.69016 194.25354 L  147.706 186.19019 L  149.72183 178.12683 L  151.73767 170.06348 L  153.75351 162.00012 L  155.76935 153.93677 L  157.78519 145.87341 L  159.80103 137.81006 L  161.81686 129.7467 L  163.8327 121.68335 L  165.84854 113.62 L  167.86438 105.55664 L  169.88022 97.49329 L  171.89606 89.42993 L  173.9119 81.36658 L  175.92773 73.30322 L  177.94357 65.23987 L  179.95941 57.17651 L  181.97525 49.11316 L  183.99109 41.0498 L  186.00693 32.98645 L  188.02277 24.9231 L  190.0386 16.85974 L  191.94289 9.24263  " style="fill:none"/>{?nl} <g>{?nl} <g transform="matrix(-0.24252,0.97014,-0.97014,-0.24252,143.78587,201.87064)">{?nl} <g>{?nl} <g stroke-width="0.31999pt">{?nl} <g stroke-dasharray="none" stroke-dashoffset="0.0pt">{?nl} <g stroke-linecap="round">{?nl} <g stroke-linejoin="round">{?nl} <path d=" M  -1.19998 1.59998 C  -1.09998 0.99998 0.0 0.09999 0.29999 0.0 C  0.0 -0.09999 -1.09998 -0.99998 -1.19998 -1.59998  " style="fill:none"/>{?nl} </g>{?nl} </g>{?nl} </g>{?nl} </g>{?nl} </g>{?nl}  </g>{?nl} </g>{?nl} <g>{?nl} <g transform="matrix(0.24252,-0.97014,0.97014,0.24252,191.94289,9.24265)">{?nl} <g>{?nl} <g stroke-width="0.31999pt">{?nl} <g stroke-dasharray="none" stroke-dashoffset="0.0pt">{?nl} <g stroke-linecap="round">{?nl} <g stroke-linejoin="round">{?nl} <path d=" M  -1.19998 1.59998 C  -1.09998 0.99998 0.0 0.09999 0.29999 0.0 C  0.0 -0.09999 -1.09998 -0.99998 -1.19998 -1.59998  " style="fill:none"/>{?nl} </g>{?nl} </g>{?nl} </g>{?nl} </g>{?nl} </g>{?nl}  </g>{?nl} </g>{?nl} </g>{?nl} </g>{?nl} </g>{?nl} <g>{?nl} <g>{?nl} <g transform="matrix(1.0,0.0,0.0,1.0,194.4558,106.7407)">{?nl} <g fill="rgb(0.0%,0.0%,0.0%)">{?nl} <text style="stroke:none" transform="scale(1,-1) translate(3.33852,0)" text-anchor="middle"  font-size="12"> 
<tspan font-family="cmmi" font-size="12">x</tspan></text> 
</g>{?nl} </g>{?nl} </g>{?nl} </g>{?nl} <g>{?nl} <g>{?nl} <g transform="matrix(1.0,0.0,0.0,1.0,106.7407,195.96617)">{?nl} <g fill="rgb(0.0%,0.0%,0.0%)">{?nl} <text style="stroke:none" transform="scale(1,-1) translate(3.07982,0)" text-anchor="middle"  font-size="12"> 
<tspan font-family="cmmi" font-size="12">y</tspan></text> 
</g>{?nl} </g>{?nl} </g>{?nl} </g>{?nl} </g>{?nl} <g>{?nl} </g>{?nl} <g>{?nl} </g>{?nl} <g>{?nl} <g transform="matrix(1.0,0.0,0.0,1.0,-0.2,-0.2)">{?nl} <g fill="rgb(0.0%,0.0%,0.0%)">{?nl} <text style="stroke:none" transform="scale(1,-1) translate(0.0,0)" text-anchor="middle"  font-size="12"> 
</text> 
</g>{?nl} </g>{?nl} </g>{?nl} <g>{?nl} </g>{?nl} <g>{?nl} </g>{?nl} </g>{?nl} </g>{?nl} </g>{?nl} </g>{?nl} </g>{?nl}                                         </g> 
</svg> 
