<?xml version="1.0" encoding="UTF-8"?>
<svg xmlns="http://www.w3.org/2000/svg" xmlns:xlink="http://www.w3.org/1999/xlink" width="171.3pt" height="149.94pt" viewBox="0 0 171.3 149.94" version="1.1">
<g id="surface1">
<path style="fill:none;stroke-width:0.3985;stroke-linecap:butt;stroke-linejoin:miter;stroke:rgb(54.998779%,54.998779%,54.998779%);stroke-opacity:1;stroke-dasharray:0.3985,1.99255;stroke-miterlimit:10;" d="M 0 -0.00140625 L 0 134.049375 M 7.769531 -0.00140625 L 7.769531 134.049375 M 15.542969 -0.00140625 L 15.542969 134.049375 M 23.3125 -0.00140625 L 23.3125 134.049375 M 31.082031 -0.00140625 L 31.082031 134.049375 M 38.855469 -0.00140625 L 38.855469 134.049375 M 46.625 -0.00140625 L 46.625 134.049375 M 54.394531 -0.00140625 L 54.394531 134.049375 M 62.167969 -0.00140625 L 62.167969 134.049375 M 69.9375 -0.00140625 L 69.9375 134.049375 M 77.707031 -0.00140625 L 77.707031 134.049375 M 85.480469 -0.00140625 L 85.480469 134.049375 M 93.25 -0.00140625 L 93.25 134.049375 M 101.019531 -0.00140625 L 101.019531 134.049375 M 108.792969 -0.00140625 L 108.792969 134.049375 M 116.5625 -0.00140625 L 116.5625 134.049375 M 124.332031 -0.00140625 L 124.332031 134.049375 M 132.105469 -0.00140625 L 132.105469 134.049375 M 139.875 -0.00140625 L 139.875 134.049375 M 147.644531 -0.00140625 L 147.644531 134.049375 M 155.414062 -0.00140625 L 155.414062 134.049375 " transform="matrix(1,0,0,-1,10,139.94)"/>
<path style="fill:none;stroke-width:0.3985;stroke-linecap:butt;stroke-linejoin:miter;stroke:rgb(54.998779%,54.998779%,54.998779%);stroke-opacity:1;stroke-dasharray:0.3985,1.99255;stroke-miterlimit:10;" d="M 0 -0.00140625 L 155.414062 -0.00140625 M 0 6.701719 L 155.414062 6.701719 M 0 13.404844 L 155.414062 13.404844 M 0 20.107969 L 155.414062 20.107969 M 0 26.811094 L 155.414062 26.811094 M 0 33.510312 L 155.414062 33.510312 M 0 40.213437 L 155.414062 40.213437 M 0 46.916562 L 155.414062 46.916562 M 0 53.619687 L 155.414062 53.619687 M 0 60.322812 L 155.414062 60.322812 M 0 67.025937 L 155.414062 67.025937 M 0 73.725156 L 155.414062 73.725156 M 0 80.428281 L 155.414062 80.428281 M 0 87.131406 L 155.414062 87.131406 M 0 93.834531 L 155.414062 93.834531 M 0 100.537656 L 155.414062 100.537656 M 0 107.236875 L 155.414062 107.236875 M 0 113.94 L 155.414062 113.94 M 0 120.643125 L 155.414062 120.643125 M 0 127.34625 L 155.414062 127.34625 M 0 134.049375 L 155.414062 134.049375 " transform="matrix(1,0,0,-1,10,139.94)"/>
<path style="fill:none;stroke-width:0.19925;stroke-linecap:butt;stroke-linejoin:miter;stroke:rgb(50%,50%,50%);stroke-opacity:1;stroke-miterlimit:10;" d="M 0 -0.00140625 L 0 -0.00140625 M 0 134.049375 L 0 134.049375 M 7.769531 -0.00140625 L 7.769531 -0.00140625 M 7.769531 134.049375 L 7.769531 134.049375 M 15.542969 -0.00140625 L 15.542969 -0.00140625 M 15.542969 134.049375 L 15.542969 134.049375 M 23.3125 -0.00140625 L 23.3125 -0.00140625 M 23.3125 134.049375 L 23.3125 134.049375 M 31.082031 -0.00140625 L 31.082031 -0.00140625 M 31.082031 134.049375 L 31.082031 134.049375 M 38.855469 -0.00140625 L 38.855469 -0.00140625 M 38.855469 134.049375 L 38.855469 134.049375 M 46.625 -0.00140625 L 46.625 -0.00140625 M 46.625 134.049375 L 46.625 134.049375 M 54.394531 -0.00140625 L 54.394531 -0.00140625 M 54.394531 134.049375 L 54.394531 134.049375 M 62.167969 -0.00140625 L 62.167969 -0.00140625 M 62.167969 134.049375 L 62.167969 134.049375 M 69.9375 -0.00140625 L 69.9375 -0.00140625 M 69.9375 134.049375 L 69.9375 134.049375 M 77.707031 -0.00140625 L 77.707031 -0.00140625 M 77.707031 134.049375 L 77.707031 134.049375 M 85.480469 -0.00140625 L 85.480469 -0.00140625 M 85.480469 134.049375 L 85.480469 134.049375 M 93.25 -0.00140625 L 93.25 -0.00140625 M 93.25 134.049375 L 93.25 134.049375 M 101.019531 -0.00140625 L 101.019531 -0.00140625 M 101.019531 134.049375 L 101.019531 134.049375 M 108.792969 -0.00140625 L 108.792969 -0.00140625 M 108.792969 134.049375 L 108.792969 134.049375 M 116.5625 -0.00140625 L 116.5625 -0.00140625 M 116.5625 134.049375 L 116.5625 134.049375 M 124.332031 -0.00140625 L 124.332031 -0.00140625 M 124.332031 134.049375 L 124.332031 134.049375 M 132.105469 -0.00140625 L 132.105469 -0.00140625 M 132.105469 134.049375 L 132.105469 134.049375 M 139.875 -0.00140625 L 139.875 -0.00140625 M 139.875 134.049375 L 139.875 134.049375 M 147.644531 -0.00140625 L 147.644531 -0.00140625 M 147.644531 134.049375 L 147.644531 134.049375 M 155.414062 -0.00140625 L 155.414062 -0.00140625 M 155.414062 134.049375 L 155.414062 134.049375 " transform="matrix(1,0,0,-1,10,139.94)"/>
<path style="fill:none;stroke-width:0.19925;stroke-linecap:butt;stroke-linejoin:miter;stroke:rgb(50%,50%,50%);stroke-opacity:1;stroke-miterlimit:10;" d="M 0 -0.00140625 L 0 -0.00140625 M 155.414062 -0.00140625 L 155.414062 -0.00140625 M 0 6.701719 L 0 6.701719 M 155.414062 6.701719 L 155.414062 6.701719 M 0 13.404844 L 0 13.404844 M 155.414062 13.404844 L 155.414062 13.404844 M 0 20.107969 L 0 20.107969 M 155.414062 20.107969 L 155.414062 20.107969 M 0 26.811094 L 0 26.811094 M 155.414062 26.811094 L 155.414062 26.811094 M 0 33.510312 L 0 33.510312 M 155.414062 33.510312 L 155.414062 33.510312 M 0 40.213437 L 0 40.213437 M 155.414062 40.213437 L 155.414062 40.213437 M 0 46.916562 L 0 46.916562 M 155.414062 46.916562 L 155.414062 46.916562 M 0 53.619687 L 0 53.619687 M 155.414062 53.619687 L 155.414062 53.619687 M 0 60.322812 L 0 60.322812 M 155.414062 60.322812 L 155.414062 60.322812 M 0 67.025937 L 0 67.025937 M 155.414062 67.025937 L 155.414062 67.025937 M 0 73.725156 L 0 73.725156 M 155.414062 73.725156 L 155.414062 73.725156 M 0 80.428281 L 0 80.428281 M 155.414062 80.428281 L 155.414062 80.428281 M 0 87.131406 L 0 87.131406 M 155.414062 87.131406 L 155.414062 87.131406 M 0 93.834531 L 0 93.834531 M 155.414062 93.834531 L 155.414062 93.834531 M 0 100.537656 L 0 100.537656 M 155.414062 100.537656 L 155.414062 100.537656 M 0 107.236875 L 0 107.236875 M 155.414062 107.236875 L 155.414062 107.236875 M 0 113.94 L 0 113.94 M 155.414062 113.94 L 155.414062 113.94 M 0 120.643125 L 0 120.643125 M 155.414062 120.643125 L 155.414062 120.643125 M 0 127.34625 L 0 127.34625 M 155.414062 127.34625 L 155.414062 127.34625 M 0 134.049375 L 0 134.049375 M 155.414062 134.049375 L 155.414062 134.049375 " transform="matrix(1,0,0,-1,10,139.94)"/>
</g>
</svg>
