<?xml version="1.0" encoding="UTF-8"?>
<svg xmlns="http://www.w3.org/2000/svg" xmlns:xlink="http://www.w3.org/1999/xlink" width="303.36pt" height="265.21pt" viewBox="0 0 303.36 265.21" version="1.1">
<g id="surface1">
<path style="fill:none;stroke-width:0.3985;stroke-linecap:butt;stroke-linejoin:miter;stroke:rgb(79.998779%,79.998779%,79.998779%);stroke-opacity:1;stroke-miterlimit:10;" d="M 0.00046875 -0.00078125 L 0.00046875 251.342969 M 14.570781 -0.00078125 L 14.570781 251.342969 M 29.141094 -0.00078125 L 29.141094 251.342969 M 43.711406 -0.00078125 L 43.711406 251.342969 M 58.281719 -0.00078125 L 58.281719 251.342969 M 72.852031 -0.00078125 L 72.852031 251.342969 M 87.422344 -0.00078125 L 87.422344 251.342969 M 101.992656 -0.00078125 L 101.992656 251.342969 M 116.562969 -0.00078125 L 116.562969 251.342969 M 131.133281 -0.00078125 L 131.133281 251.342969 M 145.703594 -0.00078125 L 145.703594 251.342969 M 160.273906 -0.00078125 L 160.273906 251.342969 M 174.844219 -0.00078125 L 174.844219 251.342969 M 189.414531 -0.00078125 L 189.414531 251.342969 M 203.98875 -0.00078125 L 203.98875 251.342969 M 218.559063 -0.00078125 L 218.559063 251.342969 M 233.129375 -0.00078125 L 233.129375 251.342969 M 247.699688 -0.00078125 L 247.699688 251.342969 M 262.27 -0.00078125 L 262.27 251.342969 M 276.840312 -0.00078125 L 276.840312 251.342969 M 291.410625 -0.00078125 L 291.410625 251.342969 " transform="matrix(1,0,0,-1,5.98,255.05)"/>
<path style="fill:none;stroke-width:0.3985;stroke-linecap:butt;stroke-linejoin:miter;stroke:rgb(79.998779%,79.998779%,79.998779%);stroke-opacity:1;stroke-miterlimit:10;" d="M 0.00046875 -0.00078125 L 291.410625 -0.00078125 M 0.00046875 12.565625 L 291.410625 12.565625 M 0.00046875 25.135938 L 291.410625 25.135938 M 0.00046875 37.702344 L 291.410625 37.702344 M 0.00046875 50.26875 L 291.410625 50.26875 M 0.00046875 62.835156 L 291.410625 62.835156 M 0.00046875 75.401563 L 291.410625 75.401563 M 0.00046875 87.971875 L 291.410625 87.971875 M 0.00046875 100.538281 L 291.410625 100.538281 M 0.00046875 113.104688 L 291.410625 113.104688 M 0.00046875 125.671094 L 291.410625 125.671094 M 0.00046875 138.2375 L 291.410625 138.2375 M 0.00046875 150.807813 L 291.410625 150.807813 M 0.00046875 163.374219 L 291.410625 163.374219 M 0.00046875 175.940625 L 291.410625 175.940625 M 0.00046875 188.507031 L 291.410625 188.507031 M 0.00046875 201.073438 L 291.410625 201.073438 M 0.00046875 213.64375 L 291.410625 213.64375 M 0.00046875 226.210156 L 291.410625 226.210156 M 0.00046875 238.776563 L 291.410625 238.776563 M 0.00046875 251.342969 L 291.410625 251.342969 " transform="matrix(1,0,0,-1,5.98,255.05)"/>
<path style="fill:none;stroke-width:0.19925;stroke-linecap:butt;stroke-linejoin:miter;stroke:rgb(50%,50%,50%);stroke-opacity:1;stroke-miterlimit:10;" d="M 0.00046875 -0.00078125 L 0.00046875 -0.00078125 M 0.00046875 251.342969 L 0.00046875 251.342969 M 14.570781 -0.00078125 L 14.570781 -0.00078125 M 14.570781 251.342969 L 14.570781 251.342969 M 29.141094 -0.00078125 L 29.141094 -0.00078125 M 29.141094 251.342969 L 29.141094 251.342969 M 43.711406 -0.00078125 L 43.711406 -0.00078125 M 43.711406 251.342969 L 43.711406 251.342969 M 58.281719 -0.00078125 L 58.281719 -0.00078125 M 58.281719 251.342969 L 58.281719 251.342969 M 72.852031 -0.00078125 L 72.852031 -0.00078125 M 72.852031 251.342969 L 72.852031 251.342969 M 87.422344 -0.00078125 L 87.422344 -0.00078125 M 87.422344 251.342969 L 87.422344 251.342969 M 101.992656 -0.00078125 L 101.992656 -0.00078125 M 101.992656 251.342969 L 101.992656 251.342969 M 116.562969 -0.00078125 L 116.562969 -0.00078125 M 116.562969 251.342969 L 116.562969 251.342969 M 131.133281 -0.00078125 L 131.133281 -0.00078125 M 131.133281 251.342969 L 131.133281 251.342969 M 145.703594 -0.00078125 L 145.703594 -0.00078125 M 145.703594 251.342969 L 145.703594 251.342969 M 160.273906 -0.00078125 L 160.273906 -0.00078125 M 160.273906 251.342969 L 160.273906 251.342969 M 174.844219 -0.00078125 L 174.844219 -0.00078125 M 174.844219 251.342969 L 174.844219 251.342969 M 189.414531 -0.00078125 L 189.414531 -0.00078125 M 189.414531 251.342969 L 189.414531 251.342969 M 203.98875 -0.00078125 L 203.98875 -0.00078125 M 203.98875 251.342969 L 203.98875 251.342969 M 218.559063 -0.00078125 L 218.559063 -0.00078125 M 218.559063 251.342969 L 218.559063 251.342969 M 233.129375 -0.00078125 L 233.129375 -0.00078125 M 233.129375 251.342969 L 233.129375 251.342969 M 247.699688 -0.00078125 L 247.699688 -0.00078125 M 247.699688 251.342969 L 247.699688 251.342969 M 262.27 -0.00078125 L 262.27 -0.00078125 M 262.27 251.342969 L 262.27 251.342969 M 276.840312 -0.00078125 L 276.840312 -0.00078125 M 276.840312 251.342969 L 276.840312 251.342969 M 291.410625 -0.00078125 L 291.410625 -0.00078125 M 291.410625 251.342969 L 291.410625 251.342969 " transform="matrix(1,0,0,-1,5.98,255.05)"/>
<path style="fill:none;stroke-width:0.19925;stroke-linecap:butt;stroke-linejoin:miter;stroke:rgb(50%,50%,50%);stroke-opacity:1;stroke-miterlimit:10;" d="M 0.00046875 -0.00078125 L 0.00046875 -0.00078125 M 291.410625 -0.00078125 L 291.410625 -0.00078125 M 0.00046875 12.565625 L 0.00046875 12.565625 M 291.410625 12.565625 L 291.410625 12.565625 M 0.00046875 25.135938 L 0.00046875 25.135938 M 291.410625 25.135938 L 291.410625 25.135938 M 0.00046875 37.702344 L 0.00046875 37.702344 M 291.410625 37.702344 L 291.410625 37.702344 M 0.00046875 50.26875 L 0.00046875 50.26875 M 291.410625 50.26875 L 291.410625 50.26875 M 0.00046875 62.835156 L 0.00046875 62.835156 M 291.410625 62.835156 L 291.410625 62.835156 M 0.00046875 75.401563 L 0.00046875 75.401563 M 291.410625 75.401563 L 291.410625 75.401563 M 0.00046875 87.971875 L 0.00046875 87.971875 M 291.410625 87.971875 L 291.410625 87.971875 M 0.00046875 100.538281 L 0.00046875 100.538281 M 291.410625 100.538281 L 291.410625 100.538281 M 0.00046875 113.104688 L 0.00046875 113.104688 M 291.410625 113.104688 L 291.410625 113.104688 M 0.00046875 125.671094 L 0.00046875 125.671094 M 291.410625 125.671094 L 291.410625 125.671094 M 0.00046875 138.2375 L 0.00046875 138.2375 M 291.410625 138.2375 L 291.410625 138.2375 M 0.00046875 150.807813 L 0.00046875 150.807813 M 291.410625 150.807813 L 291.410625 150.807813 M 0.00046875 163.374219 L 0.00046875 163.374219 M 291.410625 163.374219 L 291.410625 163.374219 M 0.00046875 175.940625 L 0.00046875 175.940625 M 291.410625 175.940625 L 291.410625 175.940625 M 0.00046875 188.507031 L 0.00046875 188.507031 M 291.410625 188.507031 L 291.410625 188.507031 M 0.00046875 201.073438 L 0.00046875 201.073438 M 291.410625 201.073438 L 291.410625 201.073438 M 0.00046875 213.64375 L 0.00046875 213.64375 M 291.410625 213.64375 L 291.410625 213.64375 M 0.00046875 226.210156 L 0.00046875 226.210156 M 291.410625 226.210156 L 291.410625 226.210156 M 0.00046875 238.776563 L 0.00046875 238.776563 M 291.410625 238.776563 L 291.410625 238.776563 M 0.00046875 251.342969 L 0.00046875 251.342969 M 291.410625 251.342969 L 291.410625 251.342969 " transform="matrix(1,0,0,-1,5.98,255.05)"/>
</g>
</svg>
