<?xml version="1.0" encoding="UTF-8"?>
<svg xmlns="http://www.w3.org/2000/svg" xmlns:xlink="http://www.w3.org/1999/xlink" width="159.4pt" height="138.04pt" viewBox="0 0 159.4 138.04" version="1.1">
<defs>
<clipPath id="clip1">
  <path d="M 1.988281 1.988281 L 157.40625 1.988281 L 157.40625 136.039062 L 1.988281 136.039062 Z M 1.988281 1.988281 "/>
</clipPath>
</defs>
<g id="surface1">
<g clip-path="url(#clip1)" clip-rule="nonzero">
<path style="fill:none;stroke-width:0.3985;stroke-linecap:butt;stroke-linejoin:miter;stroke:rgb(0%,0%,0%);stroke-opacity:1;stroke-miterlimit:10;" d="M -0.00171875 134.051719 L 6.474844 123.114219 L 12.951406 112.641562 L 19.427969 102.63375 L 25.900625 93.094687 L 32.377188 84.016562 L 38.85375 75.407187 L 45.330313 67.25875 L 51.802969 59.579062 L 58.279531 52.364219 L 64.756094 45.618125 L 71.232656 39.332969 L 77.705313 33.512656 L 84.181875 28.161094 L 90.658438 23.274375 L 97.135 18.8525 L 103.607656 14.895469 L 110.084219 11.403281 L 116.560781 8.379844 L 123.037344 5.817344 L 129.51 3.723594 L 135.986562 2.094687 L 142.463125 0.930625 L 148.939687 0.231406 L 155.412344 0.0009375 " transform="matrix(1,0,0,-1,1.99,136.04)"/>
</g>
</g>
</svg>
