<?xml version="1.0" encoding="UTF-8"?>
<svg xmlns="http://www.w3.org/2000/svg" xmlns:xlink="http://www.w3.org/1999/xlink" width="159.8pt" height="138.43pt" viewBox="0 0 159.8 138.43" version="1.1">
<g id="surface1">
<path style="fill:none;stroke-width:0.3985;stroke-linecap:butt;stroke-linejoin:miter;stroke:rgb(0%,0%,0%);stroke-opacity:1;stroke-miterlimit:10;" d="M 1.993594 22.341563 L 153.423281 22.341563 " transform="matrix(1,0,0,-1,2.19,136.24)"/>
<path style=" stroke:none;fill-rule:nonzero;fill:rgb(0%,0%,0%);fill-opacity:1;" d="M 2.191406 113.898438 L 5.378906 115.492188 L 4.183594 113.898438 L 5.378906 112.304688 "/>
<path style=" stroke:none;fill-rule:nonzero;fill:rgb(0%,0%,0%);fill-opacity:1;" d="M 157.605469 113.898438 L 154.417969 112.304688 L 155.613281 113.898438 L 154.417969 115.492188 "/>
<path style="fill:none;stroke-width:0.3985;stroke-linecap:butt;stroke-linejoin:miter;stroke:rgb(0%,0%,0%);stroke-opacity:1;stroke-miterlimit:10;" d="M 25.90375 1.993906 L 25.90375 132.0525 " transform="matrix(1,0,0,-1,2.19,136.24)"/>
<path style=" stroke:none;fill-rule:nonzero;fill:rgb(0%,0%,0%);fill-opacity:1;" d="M 28.09375 136.238281 L 29.6875 133.050781 L 28.09375 134.246094 L 26.5 133.050781 "/>
<path style=" stroke:none;fill-rule:nonzero;fill:rgb(0%,0%,0%);fill-opacity:1;" d="M 28.09375 2.195312 L 26.5 5.382812 L 28.09375 4.1875 L 29.6875 5.382812 "/>
<path style="fill:none;stroke-width:0.99628;stroke-linecap:butt;stroke-linejoin:miter;stroke:rgb(100%,0%,0%);stroke-opacity:1;stroke-miterlimit:1;" d="M 51.806094 111.704844 C 94.977969 104.255625 120.880313 81.915781 129.513125 44.681406 " transform="matrix(1,0,0,-1,2.19,136.24)"/>
</g>
</svg>
