<?xml version="1.0" encoding="UTF-8"?>
<svg xmlns="http://www.w3.org/2000/svg" xmlns:xlink="http://www.w3.org/1999/xlink" width="307.54pt" height="267.48pt" viewBox="0 0 307.54 267.48" version="1.1">
<g id="surface1">
<path style="fill:none;stroke-width:0.3985;stroke-linecap:butt;stroke-linejoin:miter;stroke:rgb(0%,0%,0%);stroke-opacity:1;stroke-dasharray:0.3985,1.99255;stroke-miterlimit:10;" d="M 0.00015625 -0.0003125 L 0.00015625 251.343437 M 14.570469 -0.0003125 L 14.570469 251.343437 M 29.140781 -0.0003125 L 29.140781 251.343437 M 43.711094 -0.0003125 L 43.711094 251.343437 M 58.281406 -0.0003125 L 58.281406 251.343437 M 72.851719 -0.0003125 L 72.851719 251.343437 M 87.422031 -0.0003125 L 87.422031 251.343437 M 101.992344 -0.0003125 L 101.992344 251.343437 M 116.562656 -0.0003125 L 116.562656 251.343437 M 131.132969 -0.0003125 L 131.132969 251.343437 M 145.703281 -0.0003125 L 145.703281 251.343437 M 160.273594 -0.0003125 L 160.273594 251.343437 M 174.847813 -0.0003125 L 174.847813 251.343437 M 189.418125 -0.0003125 L 189.418125 251.343437 M 203.988438 -0.0003125 L 203.988438 251.343437 M 218.55875 -0.0003125 L 218.55875 251.343437 M 233.129063 -0.0003125 L 233.129063 251.343437 M 247.699375 -0.0003125 L 247.699375 251.343437 M 262.269688 -0.0003125 L 262.269688 251.343437 M 276.84 -0.0003125 L 276.84 251.343437 M 291.410313 -0.0003125 L 291.410313 251.343437 " transform="matrix(1,0,0,-1,10.16,257.32)"/>
<path style="fill:none;stroke-width:0.3985;stroke-linecap:butt;stroke-linejoin:miter;stroke:rgb(0%,0%,0%);stroke-opacity:1;stroke-dasharray:0.3985,1.99255;stroke-miterlimit:10;" d="M 0.00015625 -0.0003125 L 291.410313 -0.0003125 M 0.00015625 12.566094 L 291.410313 12.566094 M 0.00015625 25.1325 L 291.410313 25.1325 M 0.00015625 37.702812 L 291.410313 37.702812 M 0.00015625 50.269219 L 291.410313 50.269219 M 0.00015625 62.835625 L 291.410313 62.835625 M 0.00015625 75.402031 L 291.410313 75.402031 M 0.00015625 87.968437 L 291.410313 87.968437 M 0.00015625 100.53875 L 291.410313 100.53875 M 0.00015625 113.105156 L 291.410313 113.105156 M 0.00015625 125.671562 L 291.410313 125.671562 M 0.00015625 138.237969 L 291.410313 138.237969 M 0.00015625 150.804375 L 291.410313 150.804375 M 0.00015625 163.374687 L 291.410313 163.374687 M 0.00015625 175.941094 L 291.410313 175.941094 M 0.00015625 188.5075 L 291.410313 188.5075 M 0.00015625 201.073906 L 291.410313 201.073906 M 0.00015625 213.640312 L 291.410313 213.640312 M 0.00015625 226.210625 L 291.410313 226.210625 M 0.00015625 238.777031 L 291.410313 238.777031 M 0.00015625 251.343437 L 291.410313 251.343437 " transform="matrix(1,0,0,-1,10.16,257.32)"/>
<path style="fill:none;stroke-width:0.19925;stroke-linecap:butt;stroke-linejoin:miter;stroke:rgb(50%,50%,50%);stroke-opacity:1;stroke-miterlimit:10;" d="M 0.00015625 -0.0003125 L 0.00015625 -0.0003125 M 0.00015625 251.343437 L 0.00015625 251.343437 M 14.570469 -0.0003125 L 14.570469 -0.0003125 M 14.570469 251.343437 L 14.570469 251.343437 M 29.140781 -0.0003125 L 29.140781 -0.0003125 M 29.140781 251.343437 L 29.140781 251.343437 M 43.711094 -0.0003125 L 43.711094 -0.0003125 M 43.711094 251.343437 L 43.711094 251.343437 M 58.281406 -0.0003125 L 58.281406 -0.0003125 M 58.281406 251.343437 L 58.281406 251.343437 M 72.851719 -0.0003125 L 72.851719 -0.0003125 M 72.851719 251.343437 L 72.851719 251.343437 M 87.422031 -0.0003125 L 87.422031 -0.0003125 M 87.422031 251.343437 L 87.422031 251.343437 M 101.992344 -0.0003125 L 101.992344 -0.0003125 M 101.992344 251.343437 L 101.992344 251.343437 M 116.562656 -0.0003125 L 116.562656 -0.0003125 M 116.562656 251.343437 L 116.562656 251.343437 M 131.132969 -0.0003125 L 131.132969 -0.0003125 M 131.132969 251.343437 L 131.132969 251.343437 M 145.703281 -0.0003125 L 145.703281 -0.0003125 M 145.703281 251.343437 L 145.703281 251.343437 M 160.273594 -0.0003125 L 160.273594 -0.0003125 M 160.273594 251.343437 L 160.273594 251.343437 M 174.847813 -0.0003125 L 174.847813 -0.0003125 M 174.847813 251.343437 L 174.847813 251.343437 M 189.418125 -0.0003125 L 189.418125 -0.0003125 M 189.418125 251.343437 L 189.418125 251.343437 M 203.988438 -0.0003125 L 203.988438 -0.0003125 M 203.988438 251.343437 L 203.988438 251.343437 M 218.55875 -0.0003125 L 218.55875 -0.0003125 M 218.55875 251.343437 L 218.55875 251.343437 M 233.129063 -0.0003125 L 233.129063 -0.0003125 M 233.129063 251.343437 L 233.129063 251.343437 M 247.699375 -0.0003125 L 247.699375 -0.0003125 M 247.699375 251.343437 L 247.699375 251.343437 M 262.269688 -0.0003125 L 262.269688 -0.0003125 M 262.269688 251.343437 L 262.269688 251.343437 M 276.84 -0.0003125 L 276.84 -0.0003125 M 276.84 251.343437 L 276.84 251.343437 M 291.410313 -0.0003125 L 291.410313 -0.0003125 M 291.410313 251.343437 L 291.410313 251.343437 " transform="matrix(1,0,0,-1,10.16,257.32)"/>
<path style="fill:none;stroke-width:0.19925;stroke-linecap:butt;stroke-linejoin:miter;stroke:rgb(50%,50%,50%);stroke-opacity:1;stroke-miterlimit:10;" d="M 0.00015625 -0.0003125 L 0.00015625 -0.0003125 M 291.410313 -0.0003125 L 291.410313 -0.0003125 M 0.00015625 12.566094 L 0.00015625 12.566094 M 291.410313 12.566094 L 291.410313 12.566094 M 0.00015625 25.1325 L 0.00015625 25.1325 M 291.410313 25.1325 L 291.410313 25.1325 M 0.00015625 37.702812 L 0.00015625 37.702812 M 291.410313 37.702812 L 291.410313 37.702812 M 0.00015625 50.269219 L 0.00015625 50.269219 M 291.410313 50.269219 L 291.410313 50.269219 M 0.00015625 62.835625 L 0.00015625 62.835625 M 291.410313 62.835625 L 291.410313 62.835625 M 0.00015625 75.402031 L 0.00015625 75.402031 M 291.410313 75.402031 L 291.410313 75.402031 M 0.00015625 87.968437 L 0.00015625 87.968437 M 291.410313 87.968437 L 291.410313 87.968437 M 0.00015625 100.53875 L 0.00015625 100.53875 M 291.410313 100.53875 L 291.410313 100.53875 M 0.00015625 113.105156 L 0.00015625 113.105156 M 291.410313 113.105156 L 291.410313 113.105156 M 0.00015625 125.671562 L 0.00015625 125.671562 M 291.410313 125.671562 L 291.410313 125.671562 M 0.00015625 138.237969 L 0.00015625 138.237969 M 291.410313 138.237969 L 291.410313 138.237969 M 0.00015625 150.804375 L 0.00015625 150.804375 M 291.410313 150.804375 L 291.410313 150.804375 M 0.00015625 163.374687 L 0.00015625 163.374687 M 291.410313 163.374687 L 291.410313 163.374687 M 0.00015625 175.941094 L 0.00015625 175.941094 M 291.410313 175.941094 L 291.410313 175.941094 M 0.00015625 188.5075 L 0.00015625 188.5075 M 291.410313 188.5075 L 291.410313 188.5075 M 0.00015625 201.073906 L 0.00015625 201.073906 M 291.410313 201.073906 L 291.410313 201.073906 M 0.00015625 213.640312 L 0.00015625 213.640312 M 291.410313 213.640312 L 291.410313 213.640312 M 0.00015625 226.210625 L 0.00015625 226.210625 M 291.410313 226.210625 L 291.410313 226.210625 M 0.00015625 238.777031 L 0.00015625 238.777031 M 291.410313 238.777031 L 291.410313 238.777031 M 0.00015625 251.343437 L 0.00015625 251.343437 M 291.410313 251.343437 L 291.410313 251.343437 " transform="matrix(1,0,0,-1,10.16,257.32)"/>
</g>
</svg>
