<?xml version="1.0" encoding="UTF-8"?>
<svg xmlns="http://www.w3.org/2000/svg" xmlns:xlink="http://www.w3.org/1999/xlink" width="178.83pt" height="154.78pt" viewBox="0 0 178.83 154.78" version="1.1">
<defs>
<clipPath id="clip1">
  <path d="M 1.988281 1.988281 L 176.835938 1.988281 L 176.835938 152.789062 L 1.988281 152.789062 Z M 1.988281 1.988281 "/>
</clipPath>
</defs>
<g id="surface1">
<g clip-path="url(#clip1)" clip-rule="nonzero">
<path style="fill:none;stroke-width:0.3985;stroke-linecap:butt;stroke-linejoin:miter;stroke:rgb(0%,0%,0%);stroke-opacity:1;stroke-miterlimit:10;" d="M -0.00171875 0.0009375 L 7.283438 19.207969 L 14.568594 35.200156 L 21.85375 48.961875 L 29.138906 61.043906 L 36.424063 71.782188 L 43.709219 81.403281 L 50.994375 90.079063 L 58.279531 97.922813 L 65.564688 105.024375 L 72.849844 111.465781 L 80.135 117.293906 L 87.420156 122.555625 L 94.705313 127.297813 L 101.990469 131.543906 L 109.275625 135.32125 L 116.560781 138.649375 L 123.845938 141.551719 L 131.131094 144.04 L 138.41625 146.125938 L 145.701406 147.82125 L 152.986562 149.129844 L 160.271719 150.063438 L 167.556875 150.618125 L 174.842031 150.801719 " transform="matrix(1,0,0,-1,1.99,152.79)"/>
</g>
</g>
</svg>
