<?xml version="1.0" encoding="UTF-8"?>
<svg xmlns="http://www.w3.org/2000/svg" xmlns:xlink="http://www.w3.org/1999/xlink" width="178.83pt" height="154.79pt" viewBox="0 0 178.83 154.79" version="1.1">
<defs>
<clipPath id="clip1">
  <path d="M 1.988281 1.992188 L 176.835938 1.992188 L 176.835938 152.800781 L 1.988281 152.800781 Z M 1.988281 1.992188 "/>
</clipPath>
</defs>
<g id="surface1">
<g clip-path="url(#clip1)" clip-rule="nonzero">
<path style="fill:none;stroke-width:0.3985;stroke-linecap:butt;stroke-linejoin:miter;stroke:rgb(0%,0%,0%);stroke-opacity:1;stroke-miterlimit:10;" d="M -0.00171875 150.807812 L 7.283438 150.546094 L 14.568594 149.760937 L 21.85375 148.452344 L 29.138906 146.620312 L 36.424063 144.264844 L 43.709219 141.382031 L 50.994375 137.979687 L 58.279531 134.053906 L 65.564688 129.600781 L 72.849844 124.628125 L 80.135 119.128125 L 87.420156 113.104687 L 94.705313 106.561719 L 101.990469 99.491406 L 109.275625 91.897656 L 116.560781 83.784375 L 123.845938 75.14375 L 131.131094 65.979687 L 138.41625 56.292187 L 145.701406 46.08125 L 152.986562 35.346875 L 160.271719 24.089062 L 167.556875 12.303906 L 174.842031 -0.00078125 " transform="matrix(1,0,0,-1,1.99,152.8)"/>
</g>
</g>
</svg>
