<?xml version="1.0" encoding="UTF-8"?>
<svg xmlns="http://www.w3.org/2000/svg" xmlns:xlink="http://www.w3.org/1999/xlink" width="159.4pt" height="138.03pt" viewBox="0 0 159.4 138.03" version="1.1">
<defs>
<clipPath id="clip1">
  <path d="M 1.988281 1.992188 L 157.40625 1.992188 L 157.40625 136.039062 L 1.988281 136.039062 Z M 1.988281 1.992188 "/>
</clipPath>
</defs>
<g id="surface1">
<g clip-path="url(#clip1)" clip-rule="nonzero">
<path style="fill:none;stroke-width:0.3985;stroke-linecap:butt;stroke-linejoin:miter;stroke:rgb(0%,0%,0%);stroke-opacity:1;stroke-miterlimit:10;" d="M -0.00171875 134.047813 L 6.474844 133.817344 L 12.951406 133.118125 L 19.427969 131.954063 L 25.900625 130.325156 L 32.377188 128.231406 L 38.85375 125.672813 L 45.330313 122.645469 L 51.802969 119.153281 L 58.279531 115.200156 L 64.756094 110.778281 L 71.232656 105.891563 L 77.705313 100.536094 L 84.181875 94.719688 L 90.658438 88.434531 L 97.135 81.684531 L 103.607656 74.473594 L 110.084219 66.79 L 116.560781 58.645469 L 123.037344 50.036094 L 129.51 40.957969 L 135.986562 31.418906 L 142.463125 21.411094 L 148.939687 10.938438 L 155.412344 0.0009375 " transform="matrix(1,0,0,-1,1.99,136.04)"/>
</g>
</g>
</svg>
