<?xml version="1.0" encoding="UTF-8"?>
<svg xmlns="http://www.w3.org/2000/svg" xmlns:xlink="http://www.w3.org/1999/xlink" width="307.3pt" height="267.23pt" viewBox="0 0 307.3 267.23" version="1.1">
<g id="surface1">
<path style="fill:none;stroke-width:0.3985;stroke-linecap:butt;stroke-linejoin:miter;stroke:rgb(0%,0%,0%);stroke-opacity:1;stroke-dasharray:0.3985,1.99255;stroke-miterlimit:10;" d="M 0 -0.00046875 L 0 251.343281 M 14.570312 -0.00046875 L 14.570312 251.343281 M 29.140625 -0.00046875 L 29.140625 251.343281 M 43.710938 -0.00046875 L 43.710938 251.343281 M 58.28125 -0.00046875 L 58.28125 251.343281 M 72.851562 -0.00046875 L 72.851562 251.343281 M 87.421875 -0.00046875 L 87.421875 251.343281 M 101.992188 -0.00046875 L 101.992188 251.343281 M 116.5625 -0.00046875 L 116.5625 251.343281 M 131.132812 -0.00046875 L 131.132812 251.343281 M 145.703125 -0.00046875 L 145.703125 251.343281 M 160.273438 -0.00046875 L 160.273438 251.343281 M 174.847656 -0.00046875 L 174.847656 251.343281 M 189.417969 -0.00046875 L 189.417969 251.343281 M 203.988281 -0.00046875 L 203.988281 251.343281 M 218.558594 -0.00046875 L 218.558594 251.343281 M 233.128906 -0.00046875 L 233.128906 251.343281 M 247.699219 -0.00046875 L 247.699219 251.343281 M 262.269531 -0.00046875 L 262.269531 251.343281 M 276.839844 -0.00046875 L 276.839844 251.343281 M 291.410156 -0.00046875 L 291.410156 251.343281 " transform="matrix(1,0,0,-1,10,257.23)"/>
<path style="fill:none;stroke-width:0.3985;stroke-linecap:butt;stroke-linejoin:miter;stroke:rgb(0%,0%,0%);stroke-opacity:1;stroke-dasharray:0.3985,1.99255;stroke-miterlimit:10;" d="M 0 -0.00046875 L 291.410156 -0.00046875 M 0 12.565937 L 291.410156 12.565937 M 0 25.13625 L 291.410156 25.13625 M 0 37.702656 L 291.410156 37.702656 M 0 50.269062 L 291.410156 50.269062 M 0 62.835469 L 291.410156 62.835469 M 0 75.401875 L 291.410156 75.401875 M 0 87.968281 L 291.410156 87.968281 M 0 100.538594 L 291.410156 100.538594 M 0 113.105 L 291.410156 113.105 M 0 125.671406 L 291.410156 125.671406 M 0 138.237812 L 291.410156 138.237812 M 0 150.804219 L 291.410156 150.804219 M 0 163.374531 L 291.410156 163.374531 M 0 175.940937 L 291.410156 175.940937 M 0 188.507344 L 291.410156 188.507344 M 0 201.07375 L 291.410156 201.07375 M 0 213.640156 L 291.410156 213.640156 M 0 226.210469 L 291.410156 226.210469 M 0 238.776875 L 291.410156 238.776875 M 0 251.343281 L 291.410156 251.343281 " transform="matrix(1,0,0,-1,10,257.23)"/>
<path style="fill:none;stroke-width:0.19925;stroke-linecap:butt;stroke-linejoin:miter;stroke:rgb(50%,50%,50%);stroke-opacity:1;stroke-miterlimit:10;" d="M 0 -0.00046875 L 0 -0.00046875 M 0 251.343281 L 0 251.343281 M 14.570312 -0.00046875 L 14.570312 -0.00046875 M 14.570312 251.343281 L 14.570312 251.343281 M 29.140625 -0.00046875 L 29.140625 -0.00046875 M 29.140625 251.343281 L 29.140625 251.343281 M 43.710938 -0.00046875 L 43.710938 -0.00046875 M 43.710938 251.343281 L 43.710938 251.343281 M 58.28125 -0.00046875 L 58.28125 -0.00046875 M 58.28125 251.343281 L 58.28125 251.343281 M 72.851562 -0.00046875 L 72.851562 -0.00046875 M 72.851562 251.343281 L 72.851562 251.343281 M 87.421875 -0.00046875 L 87.421875 -0.00046875 M 87.421875 251.343281 L 87.421875 251.343281 M 101.992188 -0.00046875 L 101.992188 -0.00046875 M 101.992188 251.343281 L 101.992188 251.343281 M 116.5625 -0.00046875 L 116.5625 -0.00046875 M 116.5625 251.343281 L 116.5625 251.343281 M 131.132812 -0.00046875 L 131.132812 -0.00046875 M 131.132812 251.343281 L 131.132812 251.343281 M 145.703125 -0.00046875 L 145.703125 -0.00046875 M 145.703125 251.343281 L 145.703125 251.343281 M 160.273438 -0.00046875 L 160.273438 -0.00046875 M 160.273438 251.343281 L 160.273438 251.343281 M 174.847656 -0.00046875 L 174.847656 -0.00046875 M 174.847656 251.343281 L 174.847656 251.343281 M 189.417969 -0.00046875 L 189.417969 -0.00046875 M 189.417969 251.343281 L 189.417969 251.343281 M 203.988281 -0.00046875 L 203.988281 -0.00046875 M 203.988281 251.343281 L 203.988281 251.343281 M 218.558594 -0.00046875 L 218.558594 -0.00046875 M 218.558594 251.343281 L 218.558594 251.343281 M 233.128906 -0.00046875 L 233.128906 -0.00046875 M 233.128906 251.343281 L 233.128906 251.343281 M 247.699219 -0.00046875 L 247.699219 -0.00046875 M 247.699219 251.343281 L 247.699219 251.343281 M 262.269531 -0.00046875 L 262.269531 -0.00046875 M 262.269531 251.343281 L 262.269531 251.343281 M 276.839844 -0.00046875 L 276.839844 -0.00046875 M 276.839844 251.343281 L 276.839844 251.343281 M 291.410156 -0.00046875 L 291.410156 -0.00046875 M 291.410156 251.343281 L 291.410156 251.343281 " transform="matrix(1,0,0,-1,10,257.23)"/>
<path style="fill:none;stroke-width:0.19925;stroke-linecap:butt;stroke-linejoin:miter;stroke:rgb(50%,50%,50%);stroke-opacity:1;stroke-miterlimit:10;" d="M 0 -0.00046875 L 0 -0.00046875 M 291.410156 -0.00046875 L 291.410156 -0.00046875 M 0 12.565937 L 0 12.565937 M 291.410156 12.565937 L 291.410156 12.565937 M 0 25.13625 L 0 25.13625 M 291.410156 25.13625 L 291.410156 25.13625 M 0 37.702656 L 0 37.702656 M 291.410156 37.702656 L 291.410156 37.702656 M 0 50.269062 L 0 50.269062 M 291.410156 50.269062 L 291.410156 50.269062 M 0 62.835469 L 0 62.835469 M 291.410156 62.835469 L 291.410156 62.835469 M 0 75.401875 L 0 75.401875 M 291.410156 75.401875 L 291.410156 75.401875 M 0 87.968281 L 0 87.968281 M 291.410156 87.968281 L 291.410156 87.968281 M 0 100.538594 L 0 100.538594 M 291.410156 100.538594 L 291.410156 100.538594 M 0 113.105 L 0 113.105 M 291.410156 113.105 L 291.410156 113.105 M 0 125.671406 L 0 125.671406 M 291.410156 125.671406 L 291.410156 125.671406 M 0 138.237812 L 0 138.237812 M 291.410156 138.237812 L 291.410156 138.237812 M 0 150.804219 L 0 150.804219 M 291.410156 150.804219 L 291.410156 150.804219 M 0 163.374531 L 0 163.374531 M 291.410156 163.374531 L 291.410156 163.374531 M 0 175.940937 L 0 175.940937 M 291.410156 175.940937 L 291.410156 175.940937 M 0 188.507344 L 0 188.507344 M 291.410156 188.507344 L 291.410156 188.507344 M 0 201.07375 L 0 201.07375 M 291.410156 201.07375 L 291.410156 201.07375 M 0 213.640156 L 0 213.640156 M 291.410156 213.640156 L 291.410156 213.640156 M 0 226.210469 L 0 226.210469 M 291.410156 226.210469 L 291.410156 226.210469 M 0 238.776875 L 0 238.776875 M 291.410156 238.776875 L 291.410156 238.776875 M 0 251.343281 L 0 251.343281 M 291.410156 251.343281 L 291.410156 251.343281 " transform="matrix(1,0,0,-1,10,257.23)"/>
</g>
</svg>
