<?xml version="1.0" encoding="UTF-8"?>
<svg xmlns="http://www.w3.org/2000/svg" xmlns:xlink="http://www.w3.org/1999/xlink" width="159.4pt" height="138.03pt" viewBox="0 0 159.4 138.03" version="1.1">
<defs>
<clipPath id="clip1">
  <path d="M 1.988281 1.992188 L 157.40625 1.992188 L 157.40625 136.039062 L 1.988281 136.039062 Z M 1.988281 1.992188 "/>
</clipPath>
</defs>
<g id="surface1">
<g clip-path="url(#clip1)" clip-rule="nonzero">
<path style="fill:none;stroke-width:0.3985;stroke-linecap:butt;stroke-linejoin:miter;stroke:rgb(0%,0%,0%);stroke-opacity:1;stroke-miterlimit:10;" d="M -0.00171875 0.0009375 L 6.474844 17.075156 L 12.951406 31.29 L 19.427969 43.524375 L 25.900625 54.262656 L 32.377188 63.805625 L 38.85375 72.360313 L 45.330313 80.07125 L 51.802969 87.043906 L 58.279531 93.360313 L 64.756094 99.082969 L 71.232656 104.262656 L 77.705313 108.942344 L 84.181875 113.157188 L 90.658438 116.930625 L 97.135 120.286094 L 103.607656 123.247031 L 110.084219 125.829063 L 116.560781 128.04 L 123.037344 129.891563 L 129.51 131.399375 L 135.986562 132.563438 L 142.463125 133.391563 L 148.939687 133.887656 L 155.412344 134.047813 " transform="matrix(1,0,0,-1,1.99,136.04)"/>
</g>
</g>
</svg>
