<?xml version="1.0" encoding="UTF-8"?>
<svg xmlns="http://www.w3.org/2000/svg" xmlns:xlink="http://www.w3.org/1999/xlink" width="159.4pt" height="138.03pt" viewBox="0 0 159.4 138.03" version="1.1">
<defs>
<clipPath id="clip1">
  <path d="M 1.988281 1.992188 L 157.40625 1.992188 L 157.40625 136.039062 L 1.988281 136.039062 Z M 1.988281 1.992188 "/>
</clipPath>
</defs>
<g id="surface1">
<g clip-path="url(#clip1)" clip-rule="nonzero">
<path style="fill:none;stroke-width:0.3985;stroke-linecap:butt;stroke-linejoin:miter;stroke:rgb(0%,0%,0%);stroke-opacity:1;stroke-miterlimit:10;" d="M -0.00171875 0.0009375 L 6.474844 0.231406 L 12.951406 0.930625 L 19.427969 2.094688 L 25.900625 3.723594 L 32.377188 5.817344 L 38.85375 8.379844 L 45.330313 11.403281 L 51.802969 14.895469 L 58.279531 18.8525 L 64.756094 23.270469 L 71.232656 28.161094 L 77.705313 33.512656 L 84.181875 39.329063 L 90.658438 45.614219 L 97.135 52.364219 L 103.607656 59.579063 L 110.084219 67.25875 L 116.560781 75.403281 L 123.037344 84.012656 L 129.51 93.090781 L 135.986562 102.629844 L 142.463125 112.637656 L 148.939687 123.110313 L 155.412344 134.047813 " transform="matrix(1,0,0,-1,1.99,136.04)"/>
</g>
</g>
</svg>
