<?xml version="1.0" encoding="UTF-8"?>
<svg xmlns="http://www.w3.org/2000/svg" xmlns:xlink="http://www.w3.org/1999/xlink" width="178.83pt" height="154.78pt" viewBox="0 0 178.83 154.78" version="1.1">
<defs>
<clipPath id="clip1">
  <path d="M 1.988281 1.988281 L 176.835938 1.988281 L 176.835938 152.789062 L 1.988281 152.789062 Z M 1.988281 1.988281 "/>
</clipPath>
</defs>
<g id="surface1">
<g clip-path="url(#clip1)" clip-rule="nonzero">
<path style="fill:none;stroke-width:0.3985;stroke-linecap:butt;stroke-linejoin:miter;stroke:rgb(0%,0%,0%);stroke-opacity:1;stroke-miterlimit:10;" d="M -0.00171875 150.801719 L 7.283438 138.497031 L 14.568594 126.715781 L 21.85375 115.457969 L 29.138906 104.723594 L 36.424063 94.512656 L 43.709219 84.825156 L 50.994375 75.661094 L 58.279531 67.024375 L 65.564688 58.907188 L 72.849844 51.317344 L 80.135 44.247031 L 87.420156 37.700156 L 94.705313 31.680625 L 101.990469 26.180625 L 109.275625 21.207969 L 116.560781 16.754844 L 123.845938 12.829063 L 131.131094 9.426719 L 138.41625 6.547813 L 145.701406 4.188438 L 152.986562 2.356406 L 160.271719 1.047813 L 167.556875 0.262656 L 174.842031 0.0009375 " transform="matrix(1,0,0,-1,1.99,152.79)"/>
</g>
</g>
</svg>
