<?xml version="1.0" encoding="UTF-8"?>
<svg xmlns="http://www.w3.org/2000/svg" xmlns:xlink="http://www.w3.org/1999/xlink" width="179.23pt" height="155.18pt" viewBox="0 0 179.23 155.18" version="1.1">
<g id="surface1">
<path style="fill:none;stroke-width:0.3985;stroke-linecap:butt;stroke-linejoin:miter;stroke:rgb(0%,0%,0%);stroke-opacity:1;stroke-miterlimit:10;" d="M 1.993594 25.134531 L 172.852969 25.134531 " transform="matrix(1,0,0,-1,2.19,152.99)"/>
<path style=" stroke:none;fill-rule:nonzero;fill:rgb(0%,0%,0%);fill-opacity:1;" d="M 2.191406 127.855469 L 5.378906 129.449219 L 4.183594 127.855469 L 5.378906 126.261719 "/>
<path style=" stroke:none;fill-rule:nonzero;fill:rgb(0%,0%,0%);fill-opacity:1;" d="M 177.035156 127.855469 L 173.847656 126.261719 L 175.042969 127.855469 L 173.847656 129.449219 "/>
<path style="fill:none;stroke-width:0.3985;stroke-linecap:butt;stroke-linejoin:miter;stroke:rgb(0%,0%,0%);stroke-opacity:1;stroke-miterlimit:10;" d="M 29.142031 1.993906 L 29.142031 148.806406 " transform="matrix(1,0,0,-1,2.19,152.99)"/>
<path style=" stroke:none;fill-rule:nonzero;fill:rgb(0%,0%,0%);fill-opacity:1;" d="M 31.332031 152.988281 L 32.925781 149.800781 L 31.332031 150.996094 L 29.738281 149.800781 "/>
<path style=" stroke:none;fill-rule:nonzero;fill:rgb(0%,0%,0%);fill-opacity:1;" d="M 31.332031 2.1875 L 29.738281 5.378906 L 31.332031 4.183594 L 32.925781 5.378906 "/>
<path style="fill:none;stroke-width:0.99628;stroke-linecap:butt;stroke-linejoin:miter;stroke:rgb(100%,0%,0%);stroke-opacity:1;stroke-miterlimit:1;" d="M 58.282656 50.267344 C 106.849063 58.64625 135.989688 83.779063 145.704531 125.665781 " transform="matrix(1,0,0,-1,2.19,152.99)"/>
</g>
</svg>
