<?xml version="1.0" encoding="UTF-8"?>
<svg xmlns="http://www.w3.org/2000/svg" xmlns:xlink="http://www.w3.org/1999/xlink" width="178.83pt" height="154.79pt" viewBox="0 0 178.83 154.79" version="1.1">
<defs>
<clipPath id="clip1">
  <path d="M 1.988281 1.992188 L 176.835938 1.992188 L 176.835938 152.800781 L 1.988281 152.800781 Z M 1.988281 1.992188 "/>
</clipPath>
</defs>
<g id="surface1">
<g clip-path="url(#clip1)" clip-rule="nonzero">
<path style="fill:none;stroke-width:0.3985;stroke-linecap:butt;stroke-linejoin:miter;stroke:rgb(0%,0%,0%);stroke-opacity:1;stroke-miterlimit:10;" d="M -0.00171875 -0.00078125 L 7.283438 0.260937 L 14.568594 1.046094 L 21.85375 2.354687 L 29.138906 4.190625 L 36.424063 6.546094 L 43.709219 9.425 L 50.994375 12.827344 L 58.279531 16.757031 L 65.564688 21.20625 L 72.849844 26.182812 L 80.135 31.678906 L 87.420156 37.702344 L 94.705313 44.249219 L 101.990469 51.315625 L 109.275625 58.909375 L 116.560781 67.026562 L 123.845938 75.667187 L 131.131094 84.83125 L 138.41625 94.51875 L 145.701406 104.729687 L 152.986562 115.464062 L 160.271719 126.721875 L 167.556875 138.503125 L 174.842031 150.807812 " transform="matrix(1,0,0,-1,1.99,152.8)"/>
</g>
</g>
</svg>
